<mxfile host="app.diagrams.net" modified="2022-04-30T13:17:06.131Z" agent="5.0 (Windows)" etag="FU7PjU16LhnzRP9Zx4I0" version="17.5.0" type="github">
  <diagram id="tOuzJylA-gAt7lLj_zVa" name="Page-1">
    <mxGraphModel dx="1185" dy="627" grid="1" gridSize="10" guides="1" tooltips="1" connect="1" arrows="1" fold="1" page="1" pageScale="1" pageWidth="1169" pageHeight="827" math="0" shadow="0">
      <root>
        <mxCell id="0" />
        <mxCell id="1" parent="0" />
        <mxCell id="Ng_4x2TDSgGOtW9_1vtr-2" value="&lt;div&gt;&lt;font face=&quot;Verdana&quot;&gt;&lt;b&gt;&lt;font style=&quot;font-size: 10px&quot;&gt;Aandacht:&lt;/font&gt;&lt;/b&gt;&lt;/font&gt;&lt;/div&gt;&lt;div&gt;&lt;font style=&quot;font-size: 10px&quot; face=&quot;Verdana&quot;&gt;immersie door zelf problemen op te lossen en &lt;br&gt;&lt;/font&gt;&lt;/div&gt;&lt;div&gt;&lt;font style=&quot;font-size: 10px&quot; face=&quot;Verdana&quot;&gt;te experimenteren&lt;/font&gt;&lt;/div&gt;" style="ellipse;whiteSpace=wrap;html=1;" vertex="1" parent="1">
          <mxGeometry x="230" y="210" width="170" height="120" as="geometry" />
        </mxCell>
        <mxCell id="Ng_4x2TDSgGOtW9_1vtr-6" value="&lt;div&gt;&lt;font style=&quot;font-size: 10px&quot; face=&quot;Verdana&quot;&gt;&lt;b&gt;Relevantie&lt;/b&gt;: &lt;br&gt;&lt;/font&gt;&lt;/div&gt;&lt;div&gt;&lt;font style=&quot;font-size: 10px&quot; face=&quot;Verdana&quot;&gt;meegaan met de trends &lt;br&gt;&lt;/font&gt;&lt;/div&gt;&lt;div&gt;&lt;font style=&quot;font-size: 10px&quot; face=&quot;Verdana&quot;&gt;van studenten en arbeidsmarkt&lt;/font&gt;&lt;/div&gt;" style="ellipse;whiteSpace=wrap;html=1;" vertex="1" parent="1">
          <mxGeometry x="390" y="130" width="170" height="120" as="geometry" />
        </mxCell>
        <mxCell id="Ng_4x2TDSgGOtW9_1vtr-7" value="&lt;div&gt;&lt;font style=&quot;font-size: 10px&quot; face=&quot;Courier New&quot;&gt;&lt;font face=&quot;Verdana&quot;&gt;&lt;b&gt;Voldoening&lt;/b&gt;:&lt;/font&gt;&lt;/font&gt;&lt;/div&gt;&lt;div&gt;&lt;font style=&quot;font-size: 10px&quot; face=&quot;Courier New&quot;&gt;&lt;font face=&quot;Verdana&quot;&gt;student kan zelf iets &lt;br&gt;&lt;/font&gt;&lt;/font&gt;&lt;/div&gt;&lt;div&gt;&lt;font style=&quot;font-size: 10px&quot; face=&quot;Courier New&quot;&gt;&lt;font face=&quot;Verdana&quot;&gt;creÃ«ren en tonen aan &lt;br&gt;&lt;/font&gt;&lt;/font&gt;&lt;/div&gt;&lt;div&gt;&lt;font style=&quot;font-size: 10px&quot; face=&quot;Courier New&quot;&gt;&lt;font face=&quot;Verdana&quot;&gt;de wereld&lt;/font&gt;&lt;/font&gt;&lt;/div&gt;" style="ellipse;whiteSpace=wrap;html=1;" vertex="1" parent="1">
          <mxGeometry x="390" y="326" width="170" height="120" as="geometry" />
        </mxCell>
        <mxCell id="Ng_4x2TDSgGOtW9_1vtr-8" value="&lt;div&gt;&lt;font style=&quot;font-size: 10px&quot; face=&quot;Courier New&quot;&gt;&lt;font face=&quot;Verdana&quot;&gt;&lt;b&gt;Vertrouwen&lt;/b&gt;:&lt;/font&gt;&lt;/font&gt;&lt;/div&gt;&lt;div&gt;&lt;font style=&quot;font-size: 10px&quot; face=&quot;Courier New&quot;&gt;&lt;font face=&quot;Verdana&quot;&gt;veilige omgeving; voorspelbaar, inclusief &lt;br&gt;&lt;/font&gt;&lt;/font&gt;&lt;/div&gt;&lt;div&gt;&lt;font style=&quot;font-size: 10px&quot; face=&quot;Courier New&quot;&gt;&lt;font face=&quot;Verdana&quot;&gt;en laagdrempelig&lt;br&gt;&lt;/font&gt;&lt;/font&gt;&lt;/div&gt;&lt;font face=&quot;Verdana&quot;&gt;&lt;/font&gt;" style="ellipse;whiteSpace=wrap;html=1;" vertex="1" parent="1">
          <mxGeometry x="550" y="210" width="170" height="120" as="geometry" />
        </mxCell>
        <mxCell id="Ng_4x2TDSgGOtW9_1vtr-10" value="&lt;b&gt;MOTIVATIE&lt;/b&gt;" style="text;html=1;align=center;verticalAlign=middle;resizable=0;points=[];autosize=1;strokeColor=none;fillColor=none;fontSize=14;fontFamily=Verdana;" vertex="1" parent="1">
          <mxGeometry x="420" y="260" width="110" height="20" as="geometry" />
        </mxCell>
      </root>
    </mxGraphModel>
  </diagram>
</mxfile>
